<svg width="20" height="20" viewBox="0 0 20 20" fill="none" xmlns="http://www.w3.org/2000/svg">
<path d="M19.8536 19.1463L14.8536 14.1463C14.8513 14.1439 14.8483 14.1433 14.846 14.1413C16.1816 12.64 16.9999 10.668 16.9999 8.49997C16.9999 3.80565 13.1943 0 8.49997 0C3.80565 0 0 3.80565 0 8.49997C0 13.1943 3.80565 16.9999 8.49997 16.9999C10.668 16.9999 12.6396 16.1816 14.1413 14.8456C14.1436 14.848 14.1443 14.851 14.1463 14.8533L19.1463 19.8532C19.2439 19.9513 19.3719 19.9999 19.4999 19.9999C19.6279 19.9999 19.7559 19.9513 19.8536 19.8536C20.0486 19.6582 20.0486 19.3416 19.8536 19.1463ZM8.49997 15.9999C4.36463 15.9999 0.999996 12.6353 0.999996 8.49997C0.999996 4.36463 4.36463 0.999996 8.49997 0.999996C12.6353 0.999996 15.9999 4.36463 15.9999 8.49997C15.9999 12.6353 12.6353 15.9999 8.49997 15.9999Z" fill="#333333"/>
</svg>
