<svg width="20" height="20" viewBox="0 0 20 15" fill="none" xmlns="http://www.w3.org/2000/svg">
<path d="M16.258 1.0454C16.258 1.0454 17.8769 0.414152 17.742 1.94719C17.697 2.57845 17.2923 4.78782 16.9775 7.17757L15.8983 14.2566C15.8983 14.2566 15.8084 15.2937 14.9989 15.474C14.1895 15.6544 12.9753 14.8428 12.7505 14.6624C12.5706 14.5272 9.37783 12.4981 8.25358 11.5062C7.93879 11.2356 7.57904 10.6945 8.29854 10.0633L13.0203 5.55436C13.5599 5.01328 14.0995 3.75078 11.8511 5.28382L5.55546 9.56732C5.55546 9.56732 4.83596 10.0182 3.48692 9.61241L0.563925 8.71061C0.563925 8.71061 -0.515329 8.03428 1.3284 7.35791C5.82529 5.2387 11.3565 3.07441 16.258 1.0454Z" fill="#667A6E"/>
</svg>
