<svg width="20" height="20" viewBox="0 0 20 20" fill="none" xmlns="http://www.w3.org/2000/svg">
<path d="M10 0C5.0625 0 0 1.0625 0 8.75C0 12.875 1.4375 15.4375 4.375 16.625V18.9375C4.375 19.375 4.625 19.75 5 19.9375C5.125 20 5.3125 20 5.4375 20C5.6875 20 6 19.875 6.1875 19.6875L8.4375 17.4375C8.9375 17.4375 9.4375 17.5 10 17.5C14.9375 17.5 20 16.4375 20 8.75C20 1.0625 14.9375 0 10 0ZM9.6875 6.375C10.8125 6.375 11.75 7.3125 11.75 8.4375C11.75 8.8125 11.5 9.0625 11.125 9.0625C10.75 9.0625 10.5 8.8125 10.5 8.4375C10.5 8 10.125 7.625 9.6875 7.625C9.3125 7.625 9.0625 7.375 9.0625 7C9.0625 6.625 9.3125 6.375 9.6875 6.375ZM9.0625 5.0625C9.0625 4.6875 9.3125 4.4375 9.6875 4.4375C11.875 4.4375 13.6875 6.25 13.6875 8.4375C13.6875 8.8125 13.4375 9.0625 13.0625 9.0625C12.6875 9.0625 12.4375 8.8125 12.4375 8.4375C12.4375 6.9375 11.1875 5.6875 9.6875 5.6875C9.3125 5.6875 9.0625 5.375 9.0625 5.0625ZM14.1875 12.8125C13.9375 13.5625 13 14.1875 12.1875 14.3125C12 14.375 11.8125 14.375 11.5625 14.375C11.0625 14.375 10.3125 14.25 9 13.6875C7.5 13.0625 6 11.75 4.8125 10.0625V10C4.4375 9.4375 3.75 8.375 3.75 7.25C3.75 5.875 4.4375 5.1875 4.6875 4.875C5.0625 4.5625 5.5 4.375 6 4.375C6.125 4.375 6.1875 4.375 6.3125 4.375C6.75 4.375 7.0625 4.5 7.375 5.125L7.625 5.625C7.8125 6.125 8.0625 6.6875 8.125 6.75C8.3125 7.125 8.3125 7.4375 8.125 7.75C8.0625 7.9375 7.9375 8.0625 7.8125 8.1875C7.75 8.3125 7.6875 8.375 7.625 8.375C7.5625 8.4375 7.5625 8.4375 7.5 8.5C7.6875 8.8125 8.0625 9.375 8.5625 9.8125C9.3125 10.5 9.875 10.6875 10.1875 10.8125C10.3125 10.6875 10.4375 10.4375 10.625 10.25L10.6875 10.125C11 9.6875 11.5 9.5625 12 9.75C12.25 9.875 13.625 10.5 13.625 10.5L13.75 10.5625C13.9375 10.6875 14.1875 10.75 14.3125 11C14.5 11.5625 14.3125 12.375 14.1875 12.8125ZM15 9.0625C14.625 9.0625 14.375 8.8125 14.375 8.4375C14.375 5.875 12.25 3.75 9.6875 3.75C9.3125 3.75 9.0625 3.5 9.0625 3.125C9.0625 2.75 9.3125 2.5 9.6875 2.5C12.9375 2.5 15.625 5.1875 15.625 8.4375C15.625 8.8125 15.375 9.0625 15 9.0625Z" fill="#667A6E"/>
</svg>
