<svg width="20" height="20" viewBox="-1 0 20 9" fill="none" xmlns="http://www.w3.org/2000/svg">
<path d="M10.9144 4.84374C10.6019 4.72624 10.6019 4.27749 10.5825 3.96499C10.5044 2.85186 10.895 1.15249 10.4262 0.429986C10.0944 -1.37836e-05 8.4925 0.0393612 7.51625 0.0981112C7.2425 0.137486 6.91062 0.195612 6.67625 0.313112C6.44187 0.430612 6.2075 0.625611 6.2075 0.801236C6.2075 1.05499 6.79375 1.01624 7.00812 1.34811C7.2425 1.69999 7.2425 2.46124 7.2425 3.08624C7.2425 3.80874 7.125 4.76624 6.8325 4.80499C6.38312 4.82436 6.12937 4.37499 5.895 4.04311C5.42625 3.39874 4.9575 2.59749 4.60562 1.81624C4.43 1.40624 4.33187 0.956861 4.07812 0.781236C3.6875 0.507486 2.98437 0.488112 2.30062 0.507487C1.67562 0.526862 0.776874 0.448737 0.601249 0.819987C0.464374 1.22999 0.757499 1.62061 0.913749 1.95311C1.71437 3.69124 2.57375 5.21499 3.62875 6.65999C4.60562 8.00749 5.52312 9.08186 7.32 9.64811C7.82812 9.80436 10.0544 10.2537 10.5037 9.64811C10.66 9.41374 10.6212 8.88624 10.6994 8.49561C10.7775 8.10499 10.875 7.71436 11.2462 7.69499C11.5587 7.67561 11.7344 7.94874 11.93 8.14436C12.145 8.35936 12.3206 8.53499 12.4769 8.73061C12.8481 9.10186 13.2387 9.60936 13.7075 9.80499C14.3519 10.0787 15.3481 10.0006 16.2856 9.96124C17.0475 9.94186 17.5944 9.78561 17.6531 9.33624C17.6925 8.98436 17.3012 8.47686 17.0669 8.18374C16.4806 7.46124 16.2075 7.24624 15.5431 6.58186C15.25 6.28874 14.8787 5.97624 14.8787 5.62499C14.8594 5.40999 15.035 5.21499 15.1912 4.99999C15.875 3.98436 16.5587 3.26186 17.1838 2.20686C17.3594 1.89436 17.77 1.17186 17.6137 0.819987C17.4381 0.429362 16.4612 0.546236 15.8556 0.546236C15.0744 0.546236 14.0587 0.487486 13.8631 0.643736C13.4919 0.897486 13.3356 1.30811 13.16 1.69874C12.7694 2.59749 12.2419 3.51499 11.695 4.19874C11.4994 4.43311 11.1287 4.92124 10.9137 4.84311L10.9144 4.84374Z" fill="#667A6E"/>
</svg>
